<?xml version="1.0" standalone="no"?>
<!DOCTYPE svg PUBLIC "-//W3C//DTD SVG 1.1//EN" "http://www.w3.org/Graphics/SVG/1.1/DTD/svg11.dtd" >
<svg xmlns="http://www.w3.org/2000/svg" xmlns:xlink="http://www.w3.org/1999/xlink" version="1.1">
<metadata></metadata>
<defs>
<font id="novamonoregular" horiz-adv-x="1150" >
<font-face units-per-em="2048" ascent="1638" descent="-410" />
<missing-glyph horiz-adv-x="500" />
<glyph horiz-adv-x="0" />
<glyph unicode="&#xd;" />
<glyph unicode=" " />
<glyph unicode="!" d="M445 132q0 55 38 93.5t92 38.5t92 -38.5t38 -93.5t-38 -93.5t-92 -38.5t-92 38.5t-38 93.5zM495 350v1091l160 70v-1091z" />
<glyph unicode="&#x22;" d="M341 963l2 480l161 70v-480zM646 961l2 480l161 70v-480z" />
<glyph unicode="#" d="M57 515l70 160h208v160h-278l70 160h208v208l160 70v-278h160v208l160 70v-278h278l-70 -160h-208v-160h278l-70 -160h-208v-208l-160 -70v278h-160v-208l-160 -70v278h-278zM495 675h160v160h-160v-160z" />
<glyph unicode="$" d="M125 445v13l160 70v-86q0 -120 86 -204q55 -55 124 -74v591q-130 28 -213 111q-112 112 -112 268q0 158 110 267q92 92 215 107v283l160 70v-365q89 -25 158 -95q111 -112 111 -266v-10l-160 -72v79q-2 93 -64 154q-21 21 -45 35v-427q141 -34 238 -128 q132 -128 132 -314v-3q0 -190 -130 -319q-103 -102 -240 -124v-286l-160 -70v356q-138 23 -238 124q-132 134 -132 315zM331 1134q0 -89 64 -153q38 -38 100 -57v420q-57 -12 -100 -56q-64 -65 -64 -154zM655 163q71 19 127 75q85 86 85 205q0 125 -82 203q-61 58 -130 81 v-564z" />
<glyph unicode="%" d="M50 486l958 704l92 -131l-958 -704zM50 1247q0 109 82 187q81 77 195 77h3q106 0 191 -77q87 -78 87 -187t-82 -187t-197 -78t-197 78t-82 187zM193 1242q0 -45 38 -82q41 -38 96 -38q56 0 96 38t40 92q0 50 -40 90q-39 39 -94 39h-4q-52 0 -94 -39q-38 -37 -38 -100z M542 265q0 109 82 187q81 77 195 77h3q106 0 191 -77q87 -78 87 -187t-82 -187t-197 -78t-197 78t-82 187zM685 260q0 -45 38 -82q41 -38 96 -38q56 0 96 38t40 92q0 50 -40 90q-39 39 -94 39h-4q-52 0 -94 -39q-38 -37 -38 -100z" />
<glyph unicode="&#x26;" d="M0 471q2 191 130 319q45 45 96 74l-8 6q-106 110 -106 265q0 138 108 247q110 109 266 109h252l-68 -160h-180q-88 -2 -154 -64q-64 -59 -64 -136q0 -90 60 -156q48 -53 152 -53h58l246 -364l220 328l142 -70l-276 -394l250 -352l-146 -70l-200 289l-176 -269h-156 q-183 0 -314 132q-130 131 -132 319zM154 465q0 -115 84 -199q85 -85 204 -86l80 -1l174 242l-234 341h-20q-118 0 -203 -88t-85 -209z" />
<glyph unicode="'" d="M494 961l2 480l160 70v-480z" />
<glyph unicode="(" d="M420 768q0 309 72 569t196 412q60 74 125 112l93 -139q-28 -18 -55 -47q-75 -78 -129 -210t-87 -314q-32 -176 -32 -388q0 -222 32 -404q33 -182 87 -314t129 -210q26 -26 52 -44l-90 -141q-65 38 -125 111q-124 152 -196 412t-72 595z" />
<glyph unicode=")" d="M244 1722l93 139q65 -38 125 -112q124 -152 196 -412t72 -569q0 -335 -72 -595t-196 -412q-60 -73 -125 -111l-90 141q26 18 52 44q75 78 129 210t87 314q32 182 32 404q0 212 -32 388q-33 182 -87 314t-129 210q-27 29 -55 47z" />
<glyph unicode="*" d="M157 926l258 149l-258 149l141 103l197 -113v227l160 70v-297l197 113l141 -103l-258 -149l258 -149l-141 -103l-197 113v-227l-160 -70v297l-197 -113z" />
<glyph unicode="+" d="M139 675l70 160h286v286l160 70v-356h356l-70 -160h-286v-286l-160 -70v356h-356z" />
<glyph unicode="," d="M391 -246q21 58 39 109q42 5 71 50q22 34 22 70v21q-33 8 -59 34q-38 38 -38 94q0 55 38 93.5t92 38.5q48 0 92 -36q43 -35 52 -102q3 -23 3 -45q0 -80 -39 -157q-73 -143 -182 -166q-29 -6 -57 -6q-16 0 -34 2z" />
<glyph unicode="-" d="M139 675l70 160h802l-70 -160h-802z" />
<glyph unicode="." d="M445 132q0 55 38 93.5t92 38.5t92 -38.5t38 -93.5t-38 -93.5t-92 -38.5t-92 38.5t-38 93.5z" />
<glyph unicode="/" d="M50 -282l905 2143l145 -68l-905 -2143z" />
<glyph unicode="0" d="M124 445v621q0 184 132 314.5t319 130.5t319 -130.5t132 -314.5v-621q0 -184 -132 -314.5t-319 -130.5q-188 0 -319 130q-132 131 -132 315zM284 442q0 -32 6 -61l456 921q-75 56 -171 56q-121 0 -206 -84.5t-85 -204.5v-627zM389 220q79 -67 186 -67q119 0 205 85 q85 84 86 204v627q0 47 -13 88z" />
<glyph unicode="1" d="M172 1125l330 316l160 70v-1441l-160 -70v1223l-236 -225z" />
<glyph unicode="2" d="M111 20l76 196q152 335 416 525q131 97 175 128q83 58 83 184v15q-3 122 -85 205q-84 85 -206 85q-119 0 -205 -85t-86 -199v-5l1 -10l-160 -70l-1 77q0 180 132 314q130 131 319 131t319 -130q131 -129 131 -338q0 -178 -148 -294q-269 -210 -278 -221 q-162 -165 -230 -330l-9 -18h684l-70 -160h-858z" />
<glyph unicode="3" d="M125 445v13l160 70v-86q0 -120 86 -204q86 -85 205 -85q121 0 206 85q85 86 85 205q0 125 -82 203q-87 83 -205 97q-17 2 -35 2q-29 0 -86 -21l-84 74l324 533h-538l70 160h748l-344 -594q146 -22 258 -131q132 -128 132 -314v-3q0 -190 -130 -319q-131 -130 -319 -130 q-190 0 -319 130q-132 134 -132 315z" />
<glyph unicode="4" d="M83 369l70 160l605 912l160 70v-982h149l-70 -160h-79v-299l-160 -70v369h-675zM332 529h426v642z" />
<glyph unicode="5" d="M125 445v13l160 70v-86q0 -120 86 -204q86 -85 205 -85q121 0 206 85q85 86 85 205q0 143 -84 215q-84 74 -203 85q-20 1 -40 1q-64 0 -136 -27l-81 -39l-120 105l133 708h643l-84 -160h-426l-87 -460q82 25 167 25q23 0 44 -2q204 -19 316 -133q116 -118 116 -309v-3 q0 -190 -130 -319q-131 -130 -319 -130q-190 0 -319 130q-132 134 -132 315z" />
<glyph unicode="6" d="M124 445v621q0 183 136 314t315 131q190 0 319 -130q132 -134 132 -315v-13l-160 -70v86q0 120 -86 204q-86 85 -205 85q-121 0 -206 -84q-85 -85 -85 -205v-287q127 106 291 106q189 0 319 -131q132 -127 132 -314q-1 -178 -132 -313q-125 -130 -319 -130 q-188 0 -319 130q-132 130 -132 315zM284 442q0 -119 85 -204t206 -85q117 0 205 85q86 84 86 206v2q0 119 -86 204t-205 85q-115 0 -206 -85q-85 -78 -85 -204v-4z" />
<glyph unicode="7" d="M105 1331l70 160h870l-707 -1422l-214 -69l666 1331h-685z" />
<glyph unicode="8" d="M125 457v1q2 185 132 308q35 33 74 59q-26 18 -49 41q-112 111 -112 268q0 158 110 267q112 111 295 111q177 0 285 -101l10 -10q56 -56 82 -121q29 -67 29 -145q-3 -159 -113 -269q-23 -23 -49 -41q39 -26 74 -59q130 -126 132 -308v-13v-3q0 -192 -130 -312 q-141 -130 -319 -130q-187 0 -327 139q-111 111 -124 318zM285 442q0 -120 83 -204q86 -85 208 -85q119 0 206 85q83 84 85 200v5v13q-5 116 -82 190q-95 89 -210 98q-115 -9 -210 -98q-80 -76 -80 -201v-3zM331 1134q0 -89 64 -153q59 -59 181 -73q119 13 179 73 q64 64 64 153q0 87 -62 152q-59 61 -174 66q-122 0 -188 -64q-64 -65 -64 -154z" />
<glyph unicode="9" d="M124 445v13l160 70v-86q0 -120 86 -204q86 -85 205 -85q121 0 206 84q85 85 85 205v287q-127 -106 -291 -106q-189 0 -319 131q-132 127 -132 314q1 178 132 313q125 130 319 130q188 0 319 -130q132 -130 132 -315v-621q0 -183 -136 -314t-315 -131q-190 0 -319 130 q-132 134 -132 315zM284 1065q0 -119 86 -204t205 -85q115 0 206 85q85 78 85 204v4q0 119 -85 204t-206 85q-117 0 -205 -85q-86 -84 -86 -206v-2z" />
<glyph unicode=":" d="M445 132q0 55 38 93.5t92 38.5t92 -38.5t38 -93.5t-38 -93.5t-92 -38.5t-92 38.5t-38 93.5zM445 752q0 55 38 93.5t92 38.5t92 -38.5t38 -93.5t-38 -93.5t-92 -38.5t-92 38.5t-38 93.5z" />
<glyph unicode=";" d="M391 -246q21 58 39 109q42 5 71 50q22 34 22 70v21q-33 8 -59 34q-38 38 -38 94q0 55 38 93.5t92 38.5q48 0 92 -36q43 -35 52 -102q3 -23 3 -45q0 -80 -39 -157q-73 -143 -182 -166q-29 -6 -57 -6q-16 0 -34 2zM445 752q0 55 38 93.5t92 38.5t92 -38.5t38 -93.5 t-38 -93.5t-92 -38.5t-92 38.5t-38 93.5z" />
<glyph unicode="&#x3c;" d="M143 675l70 160l728 339l66 -148l-622 -280l622 -265l-70 -160z" />
<glyph unicode="=" d="M139 515l70 160h802l-70 -160h-802zM139 835l70 160h802l-70 -160h-802z" />
<glyph unicode="&#x3e;" d="M143 469l622 280l-622 265l70 160l794 -354l-70 -160l-728 -339z" />
<glyph unicode="?" d="M125 989v77q0 181 132 314q130 131 319 131q188 0 319 -130q130 -129 130 -319v-2q0 -185 -148 -311q-12 -17 -242 -146q-58 -31 -69 -81q-4 -12 0 -54l-160 -70q0 8 3 142q2 115 222 234q105 57 152 95q84 68 84 199q0 118 -85 205q-85 85 -206 85q-118 0 -205 -85 q-86 -84 -86 -196v-8v-10zM359 132q0 55 38 93.5t92 38.5t92 -38.5t38 -93.5t-38 -93.5t-92 -38.5t-92 38.5t-38 93.5z" />
<glyph unicode="@" d="M161 57v621q0 183 132 314t309 131h11q151 0 266 -113q110 -108 110 -266v-674l-160 -70v548l-290 -166q8 -133 40 -190q23 -41 56 -41q17 0 36 11q49 28 51 30l61 -151q-57 -30 -112 -41q-29 -6 -56 -6q-95 0 -152 78q-86 117 -86 310v94l452 258v7q0 90 -64 160 q-64 69 -152 69q-122 0 -206 -84q-86 -85 -86 -205v-627q0 -119 86 -204q84 -85 206 -85q64 0 120 26l54 -135q-86 -44 -174 -44q-188 0 -320 130q-132 131 -132 315z" />
<glyph unicode="A" d="M124 0v1066q0 184 132 314.5t319 130.5t319 -130.5t132 -314.5v-996l-160 -70v675h-582v-605zM284 835h582v234q-1 120 -86 204q-86 85 -205 85q-120 0 -206 -85q-85 -84 -85 -201v-3v-234z" />
<glyph unicode="B" d="M126 20v1401l160 70h252q157 0 266 -109t109 -247q0 -156 -107 -265l-6 -6q50 -29 94 -74q130 -131 130 -319q0 -186 -131 -319q-129 -132 -314 -132h-453zM286 180h296q119 0 204 86t85 205q0 121 -85 206t-204 85h-39h-257v-582zM286 922h254q102 1 152 53 q61 64 61 151v11q0 72 -64 130q-66 62 -154 64h-249v-409z" />
<glyph unicode="C" d="M124 445v621q0 184 132 314.5t319 130.5q189 0 319 -131q132 -132 132 -314v-9l-160 -73v85q0 119 -86 204t-205 85q-121 0 -206 -84.5t-85 -204.5v-627q0 -119 85 -204t206 -85q119 0 205 85q86 84 86 204v12l160 74v-83q0 -184 -132 -314.5t-319 -130.5 q-188 0 -319 130q-132 131 -132 315z" />
<glyph unicode="D" d="M123 20v1402l160 70h292h1q187 0 319 -130.5t132 -314.5v-582q0 -184 -132 -314.5t-319 -130.5h-1h-452zM283 173h292h1q118 0 205 85q86 84 86 204v588q0 119 -86 204t-205 85h-1l-292 -1v-1165z" />
<glyph unicode="E" d="M204 20v1402l160 70l582 -1l-70 -160h-512v-496h582l-70 -160h-512v-495h712l-70 -160h-802z" />
<glyph unicode="F" d="M204 0v1422l160 70l582 -1l-70 -160h-512v-496h582l-70 -160h-512v-605z" />
<glyph unicode="G" d="M124 445v621q0 184 132 314.5t319 130.5q189 0 319 -131q132 -132 132 -314v-9l-160 -73v85q0 119 -86 204t-205 85q-121 0 -206 -84.5t-85 -204.5v-627q0 -119 85 -204t206 -85q115 0 205 85q86 82 86 204v233h-297l70 160h387v-390q0 -184 -132 -314.5t-319 -130.5 q-188 0 -319 130q-132 131 -132 315z" />
<glyph unicode="H" d="M124 0v1441l160 70v-676h582v606l160 70v-1441l-160 -70v675h-582v-605z" />
<glyph unicode="I" d="M139 20l70 160h286v1151h-356l70 160h802l-70 -160h-286v-1151h356l-70 -160h-802z" />
<glyph unicode="J" d="M124 445v9l160 73v-85q0 -119 86 -204t205 -85q121 0 206 84.5t85 204.5v889h-595l70 160h685v-1046q0 -184 -132 -314.5t-319 -130.5q-189 0 -319 130q-132 133 -132 315z" />
<glyph unicode="K" d="M124 0v1441l160 70v-773l553 773l150 -70l-433 -606h21q188 0 319 -131q132 -131 132 -314v-320l-160 -70v393q-1 120 -86 204q-86 85 -205 85q-120 0 -206 -85q-85 -84 -85 -201v-3v-323z" />
<glyph unicode="L" d="M139 20v1421l160 70v-1331h712l-70 -160h-802z" />
<glyph unicode="M" d="M110 0v1239q0 112 80 192t193 80q117 0 193 -78q80 78 192 78q120 0 195 -78q76 -79 77 -195v-1168l-160 -70l1 1234q0 50 -33 85t-78 35q-47 0 -80 -35q-34 -36 -34 -84v-1l-1 -1164l-160 -70l1 1234q0 50 -33 85t-78 35q-46 0 -80 -35t-34 -85l-1 -1164z" />
<glyph unicode="N" d="M124 0v1066q0 184 132 314.5t319 130.5t319 -130.5t132 -314.5v-996l-160 -70v1069q-1 120 -86 204q-86 85 -205 85q-120 0 -206 -85q-85 -84 -85 -201v-3v-999z" />
<glyph unicode="O" d="M124 445v621q0 184 132 314.5t319 130.5t319 -130.5t132 -314.5v-621q0 -184 -132 -314.5t-319 -130.5q-188 0 -319 130q-132 131 -132 315zM284 442q0 -119 85 -204t206 -85q119 0 205 85q85 84 86 204v627q-1 120 -86 204q-86 85 -205 85q-121 0 -206 -84.5t-85 -204.5 v-627z" />
<glyph unicode="P" d="M126 0v1441l160 50h293q185 0 314 -132q131 -133 131 -319q0 -188 -130 -319q-131 -132 -315 -132h-293v-519zM286 749h296q119 0 204 85t85 206q0 119 -85 205t-204 86h-296v-582z" />
<glyph unicode="Q" d="M91 445v621q0 184 132 314.5t319 130.5t319 -130.5t132 -314.5v-621q0 -184 -132 -315l-2 -2l200 -208l-163 -64l-173 180q-83 -36 -181 -36q-188 0 -319 130q-132 131 -132 315zM251 442q0 -119 85 -204t206 -85q33 0 63 6l-135 141l163 64l117 -123q82 83 83 201v627 q-1 120 -86 204q-86 85 -205 85q-121 0 -206 -84.5t-85 -204.5v-627z" />
<glyph unicode="R" d="M120 0v1441l160 50h293q185 0 314 -132q131 -133 131 -319q0 -188 -130 -319q-60 -61 -132 -94l274 -557l-161 -70l-275 589h-21h-293v-519zM280 749h296q119 0 204 85t85 206q0 119 -85 205t-204 86h-296v-582z" />
<glyph unicode="S" d="M125 445v13l160 70v-86q0 -120 86 -204q86 -85 205 -85q121 0 206 85q85 86 85 205q0 125 -82 203q-94 89 -205 97q-190 15 -298 123q-112 111 -112 268q0 158 110 267q110 110 266 110q158 0 267 -110q111 -112 111 -266v-10l-160 -72v79q-2 93 -64 154q-65 64 -154 64 t-151 -62q-64 -65 -64 -154t64 -153q60 -60 179 -73q195 -22 319 -142q132 -128 132 -314v-3q0 -190 -130 -319q-131 -130 -319 -130q-190 0 -319 130q-132 134 -132 315z" />
<glyph unicode="T" d="M45 1331l70 160h990l-70 -160h-380v-1261l-160 -70v1331h-450z" />
<glyph unicode="U" d="M124 445v996l160 70v-1069q1 -120 86 -204q86 -85 205 -85q120 0 206 85q85 84 85 201v3v999l160 70v-1066q0 -184 -132 -314.5t-319 -130.5t-319 130.5t-132 314.5z" />
<glyph unicode="V" d="M47 1441l146 70l382 -1237l384 1237l144 -70l-431 -1371l-180 -70z" />
<glyph unicode="W" d="M110 273v1168l160 70l-1 -1234q0 -50 33 -85t78 -35q47 0 80 35q34 36 34 84v1l1 1164l160 70l-1 -1234q0 -50 33 -85t78 -35q46 0 80 35t34 85l1 1164l160 70v-1239q0 -112 -80 -192t-193 -80q-117 0 -193 78q-80 -78 -192 -78q-120 0 -195 78q-76 79 -77 195z" />
<glyph unicode="X" d="M83 70l400 684l-400 687l142 70l350 -599l350 599l142 -70l-400 -687l400 -684l-145 -70l-347 595l-347 -595z" />
<glyph unicode="Y" d="M124 897v544l160 70v-617q1 -120 86 -204q86 -85 205 -85q120 0 206 85q85 84 85 201v3v547l160 70v-614q0 -184 -132 -315q-103 -101 -239 -124v-388l-160 -70v458q-136 23 -239 124q-132 131 -132 315z" />
<glyph unicode="Z" d="M105 20l654 1311h-614l70 160h802l-657 -1311h685l-70 -160h-870z" />
<glyph unicode="[" d="M440 -350v2051v90l160 70h382l-70 -160h-312v-1891h382l-70 -160h-472z" />
<glyph unicode="\" d="M50 1793l145 68l905 -2143l-145 -68z" />
<glyph unicode="]" d="M168 -350l70 160h312v1891h-382l70 160h472v-2051v-90l-160 -70h-382z" />
<glyph unicode="^" d="M175 1226l392 285l408 -288l-70 -142l-336 241l-324 -242z" />
<glyph unicode="_" d="M139 0l70 160h802l-70 -160h-802z" />
<glyph unicode="`" d="M374 1348l64 163l338 -341l-64 -163z" />
<glyph unicode="a" d="M194 294v8q0 187 191 265l407 167q0 95 -63 159.5t-159 64.5q-84 0 -148 -63q-62 -61 -64 -154v-14l-160 -71v88q0 140 120 268q102 108 258 108t266 -110t110 -266v-674l-160 -70v559l-329 -134q-104 -49 -104 -131q0 -33 26 -68q48 -64 153 -64q64 0 113 30l60 -151 q-78 -41 -173 -41q-150 0 -266 110q-78 80 -78 184z" />
<glyph unicode="b" d="M198 376v1065l160 70v-458q94 67 216 67q156 0 267 -110t111 -266v-368q0 -156 -111 -266t-267 -110t-266 110t-110 266zM358 379q0 -92 67 -154q68 -63 155 -63q84 0 148 63q62 61 64 154v362q-2 93 -64 154q-64 63 -160 63q-84 0 -147 -63q-62 -62 -63 -148v-6v-362z " />
<glyph unicode="c" d="M198 376v368q0 156 110 266t266 110q158 0 267 -110q111 -110 111 -266v-10l-160 -72v79q-2 93 -64 154q-64 63 -151 63q-90 0 -155 -63q-64 -63 -64 -151v-3v-362q0 -92 67 -154q68 -63 155 -63q84 0 148 63q62 61 64 154v14l160 71v-88q0 -140 -120 -268 q-102 -108 -258 -108t-266 110t-110 266z" />
<glyph unicode="d" d="M198 376v368q0 156 110 266t266 110q123 0 218 -68v389l160 70v-1135q0 -156 -111 -266t-267 -110t-266 110t-110 266zM358 379q0 -92 67 -154q68 -63 155 -63q84 0 148 63q62 61 64 154v362q-2 93 -64 154q-64 63 -160 63q-84 0 -147 -63q-62 -62 -63 -148v-6v-362z" />
<glyph unicode="e" d="M198 376v368q0 156 110 266t266 110q150 0 267 -110q111 -104 111 -266v-94l-594 -264q0 -95 63 -159.5t159 -64.5q84 0 148 63q62 61 64 154v14l160 71v-88q0 -140 -120 -268q-102 -108 -258 -108t-266 110t-110 266zM358 561l433 193q-5 84 -63 141q-64 63 -160 63 q-84 0 -147 -63t-63 -151v-3v-180z" />
<glyph unicode="f" d="M76 676l70 160h52v299q0 156 110 266t266 110q159 0 267 -110q111 -114 111 -266v-4l-160 -70v71q-2 93 -64 154q-65 64 -154 64t-153 -64q-63 -63 -63 -151v-3v-296h472l-70 -160h-402v-606l-160 -70v676h-122z" />
<glyph unicode="g" d="M198 376v368q0 156 110 266t266 110t267 -110t111 -266v-768q0 -156 -111 -266t-267 -110t-266 110q-70 70 -95 158l159 34q16 -43 53 -77q69 -63 155 -63q84 0 148 63q62 61 64 154v89q-95 -68 -218 -68q-156 0 -266 110t-110 266zM358 379q0 -92 67 -154 q68 -63 155 -63q84 0 148 63q62 61 64 154v362q-2 93 -64 154q-64 63 -160 63q-84 0 -147 -63q-62 -62 -63 -148v-6v-362z" />
<glyph unicode="h" d="M198 0v1441l160 70v-458q94 67 216 67q156 0 267 -110t111 -266v-674l-160 -70v741q-2 93 -64 154q-64 63 -151 63q-93 0 -156 -63q-62 -62 -63 -148v-6v-671z" />
<glyph unicode="i" d="M146 1379q0 55 38 93.5t92 38.5t92 -38.5t38 -93.5t-38 -93.5t-92 -38.5t-92 38.5t-38 93.5zM198 376v674l160 70v-741q2 -93 64 -154q64 -63 160 -63q84 0 147 68t63 156l160 70v-80q0 -156 -110 -266t-266 -110t-267 110t-111 266z" />
<glyph unicode="j" d="M198 -24v410l160 70v-477q2 -93 64 -154q63 -63 160 -63q84 0 147 63t63 151v3v1071l160 70v-1144q0 -156 -110 -266t-266 -110q-160 0 -268 110q-110 112 -110 266zM740 1379q0 54 38 93t92 39q53 0 92 -39q38 -38 38 -93q0 -54 -38 -93t-92 -39t-92 38.5t-38 93.5z" />
<glyph unicode="k" d="M198 0v1441l160 70v-820l442 429l152 -70l-306 -303q119 -22 195 -99q111 -110 111 -266v-312l-160 -70v379q-2 92 -64 154t-154 63q-88 0 -153 -63q-63 -61 -63 -148v-6v-309z" />
<glyph unicode="l" d="M198 376v1065l160 70v-1132q2 -93 64 -154q64 -63 160 -63q84 0 147 68t63 156l160 70v-80q0 -156 -110 -266t-266 -110t-267 110t-111 266z" />
<glyph unicode="m" d="M110 0v848q0 112 80 192t193 80q117 0 193 -78q80 78 192 78q120 0 195 -78q76 -79 77 -195v-777l-160 -70l1 843q0 50 -33 85t-78 35q-47 0 -80 -35q-34 -36 -34 -84v-1l-1 -773l-160 -70l1 843q0 50 -33 85t-78 35q-46 0 -80 -35t-34 -85l-1 -773z" />
<glyph unicode="n" d="M198 0v744q0 156 110 266t266 110t267 -110t111 -266v-674l-160 -70v741q-2 93 -64 154q-64 63 -151 63q-90 0 -155 -64q-64 -62 -64 -150v-3v-671z" />
<glyph unicode="o" d="M198 376v368q0 156 110 266t266 110t267 -110t111 -266v-368q0 -156 -111 -266t-267 -110t-266 110t-110 266zM358 379q0 -92 67 -154q68 -63 155 -63q84 0 148 63q62 61 64 154v362q-2 93 -64 154q-64 63 -160 63q-84 0 -147 -63q-62 -62 -63 -148v-6v-362z" />
<glyph unicode="p" d="M198 -391v1135q0 156 111 266t267 110t266 -110t110 -266v-368q0 -156 -110 -266t-266 -110q-123 0 -218 68v-389zM358 379q0 -92 67 -154q68 -63 155 -63q84 0 148 63q62 61 64 154v362q-2 93 -64 154q-64 63 -160 63q-84 0 -147 -63q-62 -62 -63 -148v-6v-362z" />
<glyph unicode="q" d="M198 376v368q0 156 111 266t267 110t266 -110t110 -266v-894l170 74l60 -144l-390 -171v458q-94 -67 -216 -67q-156 0 -267 110t-111 266zM358 379q0 -92 67 -154q68 -63 155 -63q84 0 148 63q62 61 64 154v362q-2 93 -64 154q-64 63 -160 63q-84 0 -147 -63 q-62 -62 -63 -148v-6v-362z" />
<glyph unicode="r" d="M198 0v744q0 156 110 266t266 110q159 0 267 -110q111 -114 111 -266v-4l-160 -70v71q-2 93 -64 154q-64 63 -151 63q-91 0 -155 -63t-64 -151v-3v-671z" />
<glyph unicode="s" d="M203 386l160 70l1 -77q1 -93 63 -154q64 -63 155 -63q89 0 147 60q58 62 58 138q0 67 -58 127q-59 60 -160 65q-124 6 -197 75q-71 67 -85 192q-1 9 -1 18q5 109 88 194q85 89 207 89q129 0 207 -89q52 -60 81 -159l-145 -64q-16 66 -49 105q-37 41 -95 41q-55 0 -96 -41 q-38 -38 -38 -86v-5q0 -48 36 -83q33 -33 96 -40q174 -20 267 -107q102 -98 102 -239v-3q-2 -134 -99 -240q-102 -110 -266 -110q-157 0 -258 108q-113 119 -120 268z" />
<glyph unicode="t" d="M74 940l70 160h54v341l160 70v-411h508l-70 -160h-438v-561q2 -94 64 -154q65 -63 152 -63q89 0 154 64q64 62 64 160l160 70v-80q0 -156 -110 -266t-266 -110t-267 110t-111 266v564h-124z" />
<glyph unicode="u" d="M198 376v674l160 70v-741q2 -93 64 -154q64 -63 160 -63q84 0 147 63t63 151v3v671l160 70v-744q0 -156 -110 -266t-266 -110t-267 110t-111 266z" />
<glyph unicode="v" d="M75 1050l146 70l354 -892l356 894l144 -70l-403 -982l-180 -70z" />
<glyph unicode="w" d="M110 273v777l160 70l-1 -843q0 -50 33 -85t78 -35q47 0 80 35q34 36 34 84v1l1 773l160 70l-1 -843q0 -50 33 -85t78 -35q46 0 80 35t34 85l1 773l160 70v-848q0 -112 -80 -192t-193 -80q-117 0 -193 78q-80 -78 -192 -78q-120 0 -195 78q-76 79 -77 195z" />
<glyph unicode="x" d="M121 1050l142 70l312 -438l311 438l142 -70l-353 -488l354 -492l-146 -70l-308 436l-308 -436l-145 70l355 490z" />
<glyph unicode="y" d="M198 376v674l160 70v-741q2 -93 64 -154q64 -63 160 -63q84 0 147 63q62 62 63 148v6v671l160 70v-1144q0 -156 -111 -266t-267 -110t-266 110q-70 70 -95 158l159 34q16 -43 53 -77q69 -63 155 -63q84 0 148 63q62 61 64 154v88q-94 -67 -216 -67q-156 0 -267 110 t-111 266z" />
<glyph unicode="z" d="M167 20l538 920h-507l70 160h715l-534 -920h532l-70 -160h-744z" />
<glyph unicode="{" d="M68 675l67 153h12q119 0 205 84t86 205v299q0 184 132 315q132 130 319 130h79l-67 -153h-12q-119 0 -205 -84t-86 -205v-296v-3q0 -183 -132 -315q-28 -28 -59 -50q32 -21 59 -48q132 -132 132 -315v-2v-297q0 -121 86 -205q85 -83 205 -84l80 1l-67 -154q-7 -1 -13 0 q-227 38 -319 130q-132 132 -132 315v299q0 121 -86 200q-80 74 -205 80h-39h-40z" />
<glyph unicode="|" d="M495 -350v2141l160 70v-2141z" />
<glyph unicode="}" d="M181 1707l67 154q7 1 13 0q227 -38 319 -130q132 -132 132 -315v-299q0 -121 86 -200q80 -74 205 -80h39h40l-67 -153h-12q-119 0 -205 -84t-86 -205v-299q0 -184 -132 -315q-132 -130 -319 -130h-79l67 153h12q119 0 205 84t86 205v296v3q0 183 132 315q28 28 59 50 q-32 21 -59 48q-132 132 -132 315v2v297q0 121 -86 205q-85 83 -205 84z" />
<glyph unicode="~" d="M126 580v7q0 139 81 232q76 87 188 87q101 0 200 -60q135 -82 142 -84q14 -4 27 -4q39 1 66 34q8 10 18 46l176 80q-8 -139 -79 -233q-67 -89 -192 -89q-69 0 -204 92q-94 64 -145 64q-48 0 -82 -34q-20 -20 -28 -66z" />
<glyph unicode="&#xa0;" />
<glyph unicode="&#xa1;" d="M445 1379q0 55 38 93.5t92 38.5t92 -38.5t38 -93.5t-38 -93.5t-92 -38.5t-92 38.5t-38 93.5zM495 0v1091l160 70v-1091z" />
<glyph unicode="&#xa2;" d="M198 376v368q0 156 110 266q81 81 187 102v296l160 70v-366q106 -22 186 -102q111 -111 111 -266v-10l-160 -72v79q-2 93 -64 154q-33 33 -73 49v-768q40 16 73 49q62 61 64 154v14l160 71v-88q0 -140 -120 -268q-74 -79 -177 -100v-288l-160 -70v358q-106 21 -187 102 q-110 110 -110 266zM358 379q0 -91 63 -154q34 -34 74 -49v768q-40 -15 -74 -49q-63 -63 -63 -151v-3v-362z" />
<glyph unicode="&#xa3;" d="M78 562l70 160h52v413q0 156 110 266t266 110q159 0 267 -110q111 -114 111 -266v-4l-160 -70v71q-2 93 -64 154q-65 64 -154 64t-153 -64q-63 -63 -63 -151v-3v-410h387l-70 -160h-317v-382h712l-70 -160h-802v542h-122z" />
<glyph unicode="&#xa4;" d="M73 384l186 172q-50 84 -50 194t61 200l-197 188l163 63l147 -139q89 58 203 58q115 0 203 -57l125 122l163 -63l-176 -171q62 -94 62 -205q0 -123 -51 -201l165 -163l-163 -63l-118 116q-101 -67 -210 -67q-123 0 -221 71l-129 -118zM370 747q1 -92 63 -154 q63 -63 147 -63q93 0 157 59t67 152q-2 93 -64 154q-64 63 -160 63q-84 0 -147 -63q-62 -62 -63 -148z" />
<glyph unicode="&#xa5;" d="M47 1441l146 70l331 -676h100l335 676l144 -70l-294 -606h199l-70 -160h-207l-59 -121l-12 -25v-14h348l-70 -160h-278l1 -285l-160 -70v355h-335l70 160h242l-75 160h-237l70 160h93z" />
<glyph unicode="&#xa6;" d="M495 -350v950l160 70v-950zM495 840v951l160 70v-951z" />
<glyph unicode="&#xa7;" d="M208 755v3q2 135 99 240q24 26 52 46q-69 66 -80 165q-1 12 -1 18q5 109 88 194q85 89 207 89q129 0 207 -89q52 -60 81 -159l-145 -64q-16 66 -49 105q-37 41 -95 41q-55 0 -96 -41q-38 -38 -38 -86v-5q0 -60 36 -83q33 -21 99 -21q167 0 267 -107q102 -98 102 -239v-3 q-2 -135 -99 -240q-24 -26 -52 -46q66 -66 78 -172q1 -9 1 -18q-5 -109 -88 -194q-85 -89 -207 -89q-129 0 -207 89q-52 60 -81 159l145 64q16 -66 49 -105q37 -41 95 -41q55 0 96 41q38 38 38 86v5q0 35 -37 71q-33 33 -96 40q-167 0 -267 107q-102 98 -102 239zM368 748 q0 -67 58 -127q59 -60 160 -65q77 0 141 66q55 62 55 147q0 23 -7 46q-17 44 -51 81q-59 60 -160 65q-84 0 -149 -67q-47 -62 -47 -146z" />
<glyph unicode="&#xa8;" d="M219 1379q0 55 38 93.5t92 38.5t92 -38.5t38 -93.5t-38 -93.5t-92 -38.5t-92 38.5t-38 93.5zM671 1379q0 55 38 93.5t92 38.5t92 -38.5t38 -93.5t-38 -93.5t-92 -38.5t-92 38.5t-38 93.5z" />
<glyph unicode="&#xa9;" d="M25 754q0 119 40 221t121 186q81 85 179 127.5t211 42.5q110 0 210 -43q96 -41 179 -127q80 -83 121 -186q40 -101 40 -221q0 -116 -40 -219q-38 -98 -121 -185q-79 -83 -179 -127q-98 -43 -210 -43q-111 0 -211 43q-96 41 -179 127q-81 84 -121 185t-40 219zM99 754 q0 -99 36 -188q34 -83 106 -160q70 -74 153 -110q85 -37 182 -37t182 37q83 36 154 110q69 72 104 159t35 189q0 103 -35 191q-34 86 -104 160q-69 73 -154 110q-85 36 -182 36q-98 0 -181 -36t-154 -110q-70 -73 -106 -161t-36 -185v-5zM336 649v205q0 99 72 165 q73 67 174 67t175 -68q73 -67 73 -164v-20l-139 -59v77q0 41 -32 70q-33 30 -72 30h-3q-43 0 -77 -30q-32 -28 -32 -68v-204q0 -42 33 -69q35 -29 78 -29q41 0 73 29q32 28 32 69v23l139 58v-82q0 -89 -78 -166q-67 -66 -176 -66q-95 0 -168 68q-72 67 -72 164z" />
<glyph unicode="&#xaa;" d="M140 648l70 160h802l-70 -160h-802zM330 1073v67l351 147q-5 36 -31 61q-30 29 -76 29h-2q-41 0 -73 -30q-31 -28 -31 -70v-23l-138 -58v83q0 88 77 165q67 67 168 67q102 0 174 -68q71 -67 71 -164v-392l-138 -58v33q-48 -22 -116 -22q-89 0 -163 67q-73 66 -73 166z M471 1053q6 -29 28 -49q33 -30 74 -30h2q31 0 56 14l22 13l29 -80v221z" />
<glyph unicode="&#xab;" d="M130 753l402 568l142 -70l-353 -488l354 -492l-146 -70zM475 752l403 568l142 -70l-354 -488l354 -492l-146 -70z" />
<glyph unicode="&#xac;" d="M139 675l70 160h802l-196 -463l-204 -63l148 366h-620z" />
<glyph unicode="&#xad;" d="M139 675l70 160h802l-70 -160h-802z" />
<glyph unicode="&#xae;" d="M25 754q0 119 40 221t121 186q81 85 179 127.5t211 42.5q110 0 210 -43q96 -41 179 -127q80 -83 121 -186q40 -101 40 -221q0 -116 -40 -219q-38 -98 -121 -185q-79 -83 -179 -127q-98 -43 -210 -43q-111 0 -211 43q-96 41 -179 127q-81 84 -121 185t-40 219zM99 754 q0 -99 36 -188q34 -83 106 -160q70 -74 153 -110q85 -37 182 -37t182 37q83 36 154 110q69 72 104 159t35 189q0 103 -35 191t-104 160q-69 73 -154 109.5t-182 36.5q-98 0 -181 -36t-154 -110q-70 -73 -106 -161t-36 -185v-5zM357 417v658l102 28h141q99 0 168 -62 q72 -65 72 -152v-2q-1 -91 -72 -154q-18 -16 -38 -28l129 -230l-136 -52l-132 248h-96v-202zM495 801h107q40 0 73 26q30 24 30 59v1q0 32 -31 60q-29 26 -72 26h-107v-172z" />
<glyph unicode="&#xaf;" d="M139 1351l70 160h802l-70 -160h-802z" />
<glyph unicode="&#xb0;" d="M239 1182q0 137 98.5 233.5t237.5 96.5t237.5 -96.5t98.5 -233.5t-98.5 -233.5t-237.5 -96.5t-237.5 96.5t-98.5 233.5zM390 1183q0 -78 54 -130q55 -53 132 -53t131 53q55 54 55 130q0 74 -55 129q-54 54 -131 54t-131.5 -53.5t-54.5 -129.5z" />
<glyph unicode="&#xb1;" d="M139 244l70 160h802l-70 -160h-802zM139 818l70 160h286v286l160 70v-356h356l-70 -160h-286v-286l-160 -70v356h-356z" />
<glyph unicode="&#xb2;" d="M303 832l57 127q76 144 210 230l83 52q25 16 25 49v6q-1 36 -30 61q-31 27 -77 27t-76 -27t-30 -58l2 -20l1 -8l-142 -53l-1 77q0 90 73 154q71 62 173 62q101 0 173 -62t73 -163v-2q0 -92 -80 -146l-133 -89q-50 -44 -80 -87h323l-66 -130h-478z" />
<glyph unicode="&#xb3;" d="M333 1382l63 129h421l-164 -251q47 -16 87 -50q71 -60 71 -151v-1q0 -92 -70 -153q-69 -60 -167 -60t-167 61q-72 64 -72 150v28l138 52v-81q0 -33 28 -58q30 -27 71 -27h2q44 0 71 26q26 27 27 60q1 37 -23 57q-38 32 -76 32h-20q-22 1 -47 -9l-5 -2l-57 51l127 197 h-238z" />
<glyph unicode="&#xb4;" d="M374 1170l338 341l64 -163l-338 -341z" />
<glyph unicode="&#xb5;" d="M198 -390v1440l160 70v-741q2 -93 64 -154q64 -63 160 -63q84 0 147 63t63 151v3v671l160 70v-744q0 -156 -110 -266t-266 -110q-123 0 -218 68v-388z" />
<glyph unicode="&#xb6;" d="M254 1037v3q0 183 132 319q128 132 314 132h196v-1421l-54 -24v1393h-56v-1417l-50 -22v589h-36q-184 0 -316 132q-130 130 -130 316z" />
<glyph unicode="&#xb7;" d="M445 752q0 55 38 93.5t92 38.5t92 -38.5t38 -93.5t-38 -93.5t-92 -38.5t-92 38.5t-38 93.5z" />
<glyph unicode="&#xb8;" d="M414 -316l176 73l-118 256l116 131l144 -319l4 -176l-318 -140z" />
<glyph unicode="&#xb9;" d="M360 1307l192 157l126 47v-669l-142 -53v488l-88 -70z" />
<glyph unicode="&#xba;" d="M140 648l70 160h802l-70 -160h-802zM328 1074v205q0 95 73 164q72 68 173 68t175 -68q73 -67 73 -164v-205q0 -88 -78 -166q-67 -66 -172 -66q-101 0 -172 67q-72 68 -72 165zM467 1075q0 -43 34 -70q36 -28 75 -29q45 0 75 29t32 71v201q-2 41 -32 70q-31 30 -74 30h-1 q-43 0 -77 -30q-32 -28 -32 -68v-204z" />
<glyph unicode="&#xbb;" d="M130 270l354 492l-354 488l142 70l403 -568l-399 -552zM475 271l354 492l-353 488l142 70l402 -568l-399 -552z" />
<glyph unicode="&#xbc;" d="M33 1307l191 157l126 47v-669l-142 -53v488l-87 -70zM50 486l958 704l92 -131l-958 -704zM584 169l53 113l273 372l123 48v-402h84l-60 -131h-24v-114l-134 -55v169h-315zM805 291h94v134z" />
<glyph unicode="&#xbd;" d="M33 1307l191 157l126 47v-669l-142 -53v488l-87 -70zM50 486l958 704l92 -131l-958 -704zM550 0l57 127q76 144 210 230l83 52q25 16 25 49v6q-1 36 -30 61q-31 27 -77 27t-76 -27t-30 -58l2 -20l1 -8l-142 -53l-1 77q0 90 73 154q71 62 173 62q101 0 173 -62t73 -163v-2 q0 -92 -80 -146l-133 -89q-50 -44 -80 -87h323l-66 -130h-478z" />
<glyph unicode="&#xbe;" d="M46 1382l63 129h421l-164 -251q47 -16 87 -50q71 -60 71 -151v-1q0 -92 -70 -153q-69 -60 -167 -60t-167 61q-72 64 -72 150v28l138 52v-81q0 -33 28 -58q30 -27 71 -27h2q44 0 71 26q26 27 27 60q1 37 -23 57q-38 32 -76 32h-20q-22 1 -47 -9l-5 -2l-57 51l127 197h-238 zM50 486l958 704l92 -131l-958 -704zM584 169l53 113l273 372l123 48v-402h84l-60 -131h-24v-114l-134 -55v169h-315zM805 291h94v134z" />
<glyph unicode="&#xbf;" d="M125 449v2q0 185 148 311q12 17 242 146q58 31 69 81q4 12 0 54l160 70q0 -8 -3 -142q-2 -115 -222 -234q-105 -57 -152 -95q-84 -68 -84 -199q0 -118 85 -205q85 -85 206 -85q118 0 205 85q86 84 86 196v8v10l160 70v-77q0 -181 -132 -314q-130 -131 -319 -131 q-188 0 -319 130q-130 129 -130 319zM531 1379q0 55 38 93.5t92 38.5t92 -38.5t38 -93.5t-38 -93.5t-92 -38.5t-92 38.5t-38 93.5z" />
<glyph unicode="&#xc0;" d="M124 0v1066q0 184 132 314.5t319 130.5t319 -130.5t132 -314.5v-996l-160 -70v675h-582v-605zM284 835h582v234q-1 120 -86 204q-86 85 -205 85q-120 0 -206 -85q-85 -84 -85 -201v-3v-234zM293 1859l64 163l286 -278l-64 -163z" />
<glyph unicode="&#xc1;" d="M124 0v1066q0 184 132 314.5t319 130.5t319 -130.5t132 -314.5v-996l-160 -70v675h-582v-605zM284 835h582v234q-1 120 -86 204q-86 85 -205 85q-120 0 -206 -85q-85 -84 -85 -201v-3v-234zM511 1744l286 278l64 -163l-286 -278z" />
<glyph unicode="&#xc2;" d="M124 0v1066q0 184 132 314.5t319 130.5t319 -130.5t132 -314.5v-996l-160 -70v675h-582v-605zM284 835h582v234q-1 120 -86 204q-86 85 -205 85q-120 0 -206 -85q-85 -84 -85 -201v-3v-234zM315 1732l262 240l257 -236l-72 -146l-186 197l-194 -197z" />
<glyph unicode="&#xc3;" d="M124 0v1066q0 184 132 314.5t319 130.5t319 -130.5t132 -314.5v-996l-160 -70v675h-582v-605zM221 1733l262 240l198 -182l172 182l72 -146l-257 -236l-200 183l-180 -183zM284 835h582v234q-1 120 -86 204q-86 85 -205 85q-120 0 -206 -85q-85 -84 -85 -201v-3v-234z " />
<glyph unicode="&#xc4;" d="M124 0v1066q0 184 132 314.5t319 130.5t319 -130.5t132 -314.5v-996l-160 -70v675h-582v-605zM222 1743q0 55 38 93.5t92 38.5t92 -38.5t38 -93.5t-38 -93.5t-92 -38.5t-92 38.5t-38 93.5zM284 835h582v234q-1 120 -86 204q-86 85 -205 85q-120 0 -206 -85 q-85 -84 -85 -201v-3v-234zM674 1743q0 55 38 93.5t92 38.5t92 -38.5t38 -93.5t-38 -93.5t-92 -38.5t-92 38.5t-38 93.5z" />
<glyph unicode="&#xc5;" d="M124 0v1066q0 184 132 314.5t319 130.5t319 -130.5t132 -314.5v-996l-160 -70v675h-582v-605zM284 835h582v234q-1 120 -86 204q-86 85 -205 85q-120 0 -206 -85q-85 -84 -85 -201v-3v-234zM348 1811q0 94 67 159t161 65q92 0 160 -66t68 -158t-68 -159q-66 -65 -160 -65 q-96 0 -164 66q-64 65 -64 158zM485 1803q3 -36 30 -60q26 -23 68 -24q30 0 58 26q27 25 27 60v3q0 39 -27 63q-29 26 -63 26h-2q-37 0 -65 -28q-26 -26 -26 -61v-5z" />
<glyph unicode="&#xc6;" d="M110 0v1239q0 112 80 192t193 80q104 0 175 -61l97 42l343 -1l-70 -160h-273v-496h343l-70 -160h-273v-495h473l-70 -160h-563v655h-224l-1 -605zM271 835h224v401q0 50 -32.5 84t-77.5 34q-46 0 -80 -35t-34 -85v-399z" />
<glyph unicode="&#xc7;" d="M124 445v621q0 184 132 314.5t319 130.5q189 0 319 -131q132 -133 132 -314v-9l-160 -73v85q0 119 -86 204t-205 85q-121 0 -206 -84.5t-85 -204.5v-627q0 -119 85 -204t206 -85q118 0 205 85q86 84 86 204v12l160 74v-83q0 -185 -132 -315q-107 -105 -250 -125l82 -183 l4 -176l-318 -140l-4 175l176 73l-118 256l1 2q-119 27 -211 118q-132 131 -132 315z" />
<glyph unicode="&#xc8;" d="M204 20v1402l160 70l582 -1l-70 -160h-512v-496h582l-70 -160h-512v-495h712l-70 -160h-802zM293 1859l64 163l286 -278l-64 -163z" />
<glyph unicode="&#xc9;" d="M204 20v1402l160 70l582 -1l-70 -160h-512v-496h582l-70 -160h-512v-495h712l-70 -160h-802zM511 1744l286 278l64 -163l-286 -278z" />
<glyph unicode="&#xca;" d="M204 20v1402l160 70l582 -1l-70 -160h-512v-496h582l-70 -160h-512v-495h712l-70 -160h-802zM315 1732l262 240l257 -236l-72 -146l-186 197l-194 -197z" />
<glyph unicode="&#xcb;" d="M204 20v1402l160 70l582 -1l-70 -160h-512v-496h582l-70 -160h-512v-495h712l-70 -160h-802zM222 1743q0 55 38 93.5t92 38.5t92 -38.5t38 -93.5t-38 -93.5t-92 -38.5t-92 38.5t-38 93.5zM674 1743q0 55 38 93.5t92 38.5t92 -38.5t38 -93.5t-38 -93.5t-92 -38.5t-92 38.5 t-38 93.5z" />
<glyph unicode="&#xcc;" d="M139 20l70 160h286v1151h-356l70 160h802l-70 -160h-286v-1151h356l-70 -160h-802zM293 1859l64 163l286 -278l-64 -163z" />
<glyph unicode="&#xcd;" d="M139 20l70 160h286v1151h-356l70 160h802l-70 -160h-286v-1151h356l-70 -160h-802zM511 1744l286 278l64 -163l-286 -278z" />
<glyph unicode="&#xce;" d="M139 20l70 160h286v1151h-356l70 160h802l-70 -160h-286v-1151h356l-70 -160h-802zM315 1732l262 240l257 -236l-72 -146l-186 197l-194 -197z" />
<glyph unicode="&#xcf;" d="M139 20l70 160h286v1151h-356l70 160h802l-70 -160h-286v-1151h356l-70 -160h-802zM222 1743q0 55 38 93.5t92 38.5t92 -38.5t38 -93.5t-38 -93.5t-92 -38.5t-92 38.5t-38 93.5zM674 1743q0 55 38 93.5t92 38.5t92 -38.5t38 -93.5t-38 -93.5t-92 -38.5t-92 38.5t-38 93.5 z" />
<glyph unicode="&#xd0;" d="M28 675l70 160h25v587l160 70h292h1q187 0 319 -130.5t132 -314.5v-582q0 -184 -132 -314.5t-319 -130.5h-1h-452v655h-95zM283 173h292h1q118 0 205 85q86 84 86 204v588q0 119 -86 204t-205 85h-1l-292 -1v-503h400l-70 -160h-330v-502z" />
<glyph unicode="&#xd1;" d="M124 0v1066q0 184 132 314.5t319 130.5t319 -130.5t132 -314.5v-996l-160 -70v1069q-1 120 -86 204q-86 85 -205 85q-120 0 -206 -85q-85 -84 -85 -201v-3v-999zM221 1733l262 240l198 -182l172 182l72 -146l-257 -236l-200 183l-180 -183z" />
<glyph unicode="&#xd2;" d="M124 445v621q0 184 132 314.5t319 130.5t319 -130.5t132 -314.5v-621q0 -184 -132 -314.5t-319 -130.5q-188 0 -319 130q-132 131 -132 315zM284 442q0 -119 85 -204t206 -85q119 0 205 85q85 84 86 204v627q-1 120 -86 204q-86 85 -205 85q-121 0 -206 -84.5t-85 -204.5 v-627zM293 1859l64 163l286 -278l-64 -163z" />
<glyph unicode="&#xd3;" d="M124 445v621q0 184 132 314.5t319 130.5t319 -130.5t132 -314.5v-621q0 -184 -132 -314.5t-319 -130.5q-188 0 -319 130q-132 131 -132 315zM284 442q0 -119 85 -204t206 -85q119 0 205 85q85 84 86 204v627q-1 120 -86 204q-86 85 -205 85q-121 0 -206 -84.5t-85 -204.5 v-627zM511 1744l286 278l64 -163l-286 -278z" />
<glyph unicode="&#xd4;" d="M124 445v621q0 184 132 314.5t319 130.5t319 -130.5t132 -314.5v-621q0 -184 -132 -314.5t-319 -130.5q-188 0 -319 130q-132 131 -132 315zM284 442q0 -119 85 -204t206 -85q119 0 205 85q85 84 86 204v627q-1 120 -86 204q-86 85 -205 85q-121 0 -206 -84.5t-85 -204.5 v-627zM315 1732l262 240l257 -236l-72 -146l-186 197l-194 -197z" />
<glyph unicode="&#xd5;" d="M124 445v621q0 184 132 314.5t319 130.5t319 -130.5t132 -314.5v-621q0 -184 -132 -314.5t-319 -130.5q-188 0 -319 130q-132 131 -132 315zM221 1733l262 240l198 -182l172 182l72 -146l-257 -236l-200 183l-180 -183zM284 442q0 -119 85 -204t206 -85q119 0 205 85 q85 84 86 204v627q-1 120 -86 204q-86 85 -205 85q-121 0 -206 -84.5t-85 -204.5v-627z" />
<glyph unicode="&#xd6;" d="M124 445v621q0 184 132 314.5t319 130.5t319 -130.5t132 -314.5v-621q0 -184 -132 -314.5t-319 -130.5q-188 0 -319 130q-132 131 -132 315zM222 1743q0 55 38 93.5t92 38.5t92 -38.5t38 -93.5t-38 -93.5t-92 -38.5t-92 38.5t-38 93.5zM284 442q0 -119 85 -204t206 -85 q119 0 205 85q85 84 86 204v627q-1 120 -86 204q-86 85 -205 85q-121 0 -206 -84.5t-85 -204.5v-627zM674 1743q0 55 38 93.5t92 38.5t92 -38.5t38 -93.5t-38 -93.5t-92 -38.5t-92 38.5t-38 93.5z" />
<glyph unicode="&#xd7;" d="M210 503l252 252l-252 252l163 63l202 -202l202 202l163 -63l-252 -252l252 -252l-163 -63l-202 202l-202 -202z" />
<glyph unicode="&#xd8;" d="M59 -31l131 242q-66 104 -66 234v621q0 184 132 314.5t319 130.5q155 0 273 -90l100 184l145 -68l-131 -241q64 -102 64 -230v-621q0 -184 -132 -314.5t-319 -130.5q-154 0 -270 87l-101 -186zM284 442q0 -26 4 -51l484 890q-84 77 -197 77q-121 0 -206 -84.5t-85 -204.5 v-627zM381 227q81 -74 194 -74q119 0 205 85q85 84 86 204v627q0 23 -3 44z" />
<glyph unicode="&#xd9;" d="M124 445v996l160 70v-1069q1 -120 86 -204q86 -85 205 -85q120 0 206 85q85 84 85 201v3v999l160 70v-1066q0 -184 -132 -314.5t-319 -130.5t-319 130.5t-132 314.5zM293 1859l64 163l286 -278l-64 -163z" />
<glyph unicode="&#xda;" d="M124 445v996l160 70v-1069q1 -120 86 -204q86 -85 205 -85q120 0 206 85q85 84 85 201v3v999l160 70v-1066q0 -184 -132 -314.5t-319 -130.5t-319 130.5t-132 314.5zM511 1744l286 278l64 -163l-286 -278z" />
<glyph unicode="&#xdb;" d="M124 445v996l160 70v-1069q1 -120 86 -204q86 -85 205 -85q120 0 206 85q85 84 85 201v3v999l160 70v-1066q0 -184 -132 -314.5t-319 -130.5t-319 130.5t-132 314.5zM315 1732l262 240l257 -236l-72 -146l-186 197l-194 -197z" />
<glyph unicode="&#xdc;" d="M124 445v996l160 70v-1069q1 -120 86 -204q86 -85 205 -85q120 0 206 85q85 84 85 201v3v999l160 70v-1066q0 -184 -132 -314.5t-319 -130.5t-319 130.5t-132 314.5zM222 1743q0 55 38 93.5t92 38.5t92 -38.5t38 -93.5t-38 -93.5t-92 -38.5t-92 38.5t-38 93.5zM674 1743 q0 55 38 93.5t92 38.5t92 -38.5t38 -93.5t-38 -93.5t-92 -38.5t-92 38.5t-38 93.5z" />
<glyph unicode="&#xdd;" d="M124 897v544l160 70v-617q1 -120 86 -204q86 -85 205 -85q120 0 206 85q85 84 85 201v3v547l160 70v-614q0 -184 -132 -315q-103 -101 -239 -124v-388l-160 -70v458q-136 23 -239 124q-132 131 -132 315zM511 1744l286 278l64 -163l-286 -278z" />
<glyph unicode="&#xde;" d="M157 0v1441l160 70v-305h231q183 0 314 -132t131 -315v-3q-1 -190 -130 -320q-131 -132 -315 -132h-231v-234zM317 464h234q119 0 204 85t85 207q0 118 -85 204t-204 86h-234v-582z" />
<glyph unicode="&#xdf;" d="M126 0v1146q3 150 110 257q109 109 279 109h3q173 -1 284 -111q105 -104 114 -241q1 -15 1 -29q-1 -157 -111 -261l-6 -6q50 -29 94 -74q130 -131 130 -319q0 -186 -131 -319q-129 -132 -314 -132h-204l69 160h138q119 0 204 86t85 205q0 121 -85 206t-204 85h-112 l70 160q102 1 152 53q61 64 61 151q-2 91 -64 154q-68 69 -174.5 69t-165.5 -61q-62 -64 -63 -148v-1070z" />
<glyph unicode="&#xe0;" d="M194 294v8q0 187 191 265l407 167q0 95 -63 159.5t-159 64.5q-84 0 -148 -63q-62 -61 -64 -154v-14l-160 -71v88q0 140 120 268q102 108 258 108t266 -110t110 -266v-674l-160 -70v559l-329 -134q-104 -49 -104 -131q0 -33 26 -68q48 -64 153 -64q64 0 113 30l60 -151 q-78 -41 -173 -41q-150 0 -266 110q-78 80 -78 184zM288 1448l64 163l286 -278l-64 -163z" />
<glyph unicode="&#xe1;" d="M194 294v8q0 187 191 265l407 167q0 95 -63 159.5t-159 64.5q-84 0 -148 -63q-62 -61 -64 -154v-14l-160 -71v88q0 140 120 268q102 108 258 108t266 -110t110 -266v-674l-160 -70v559l-329 -134q-104 -49 -104 -131q0 -33 26 -68q48 -64 153 -64q64 0 113 30l60 -151 q-78 -41 -173 -41q-150 0 -266 110q-78 80 -78 184zM511 1333l286 278l64 -163l-286 -278z" />
<glyph unicode="&#xe2;" d="M194 294v8q0 187 191 265l407 167q0 95 -63 159.5t-159 64.5q-84 0 -148 -63q-62 -61 -64 -154v-14l-160 -71v88q0 140 120 268q102 108 258 108t266 -110t110 -266v-674l-160 -70v559l-329 -134q-104 -49 -104 -131q0 -33 26 -68q48 -64 153 -64q64 0 113 30l60 -151 q-78 -41 -173 -41q-150 0 -266 110q-78 80 -78 184zM312 1323l262 240l257 -236l-72 -146l-186 197l-194 -197z" />
<glyph unicode="&#xe3;" d="M194 294v8q0 187 191 265l407 167q0 95 -63 159.5t-159 64.5q-84 0 -148 -63q-62 -61 -64 -154v-14l-160 -71v88q0 140 120 268q102 108 258 108t266 -110t110 -266v-674l-160 -70v559l-329 -134q-104 -49 -104 -131q0 -33 26 -68q48 -64 153 -64q64 0 113 30l60 -151 q-78 -41 -173 -41q-150 0 -266 110q-78 80 -78 184zM234 1315l262 240l198 -182l172 182l72 -146l-257 -236l-200 183l-180 -183z" />
<glyph unicode="&#xe4;" d="M194 294v8q0 187 191 265l407 167q0 95 -63 159.5t-159 64.5q-84 0 -148 -63q-62 -61 -64 -154v-14l-160 -71v88q0 140 120 268q102 108 258 108t266 -110t110 -266v-674l-160 -70v559l-329 -134q-104 -49 -104 -131q0 -33 26 -68q48 -64 153 -64q64 0 113 30l60 -151 q-78 -41 -173 -41q-150 0 -266 110q-78 80 -78 184zM219 1379q0 55 38 93.5t92 38.5t92 -38.5t38 -93.5t-38 -93.5t-92 -38.5t-92 38.5t-38 93.5zM671 1379q0 55 38 93.5t92 38.5t92 -38.5t38 -93.5t-38 -93.5t-92 -38.5t-92 38.5t-38 93.5z" />
<glyph unicode="&#xe5;" d="M194 294v8q0 187 191 265l407 167q0 95 -63 159.5t-159 64.5q-84 0 -148 -63q-62 -61 -64 -154v-14l-160 -71v88q0 140 120 268q102 108 258 108t266 -110t110 -266v-674l-160 -70v559l-329 -134q-104 -49 -104 -131q0 -33 26 -68q48 -64 153 -64q64 0 113 30l60 -151 q-78 -41 -173 -41q-150 0 -266 110q-78 80 -78 184zM351 1424q0 94 67 159t161 65q92 0 160 -66t68 -158t-68 -159q-66 -65 -160 -65q-96 0 -164 66q-64 65 -64 158zM488 1416q3 -36 30 -60q26 -23 68 -24q30 0 58 26q27 25 27 60v3q0 39 -27 63q-29 26 -63 26h-2 q-37 0 -65 -28q-26 -26 -26 -61v-5z" />
<glyph unicode="&#xe6;" d="M94 294v8q0 187 191 265l224 94v182v1q0 50 -32 84q-33 35 -78 35q-46 0 -80 -35q-31 -31 -34 -85l-1 -21l-160 -70v96q0 107 80 192q75 80 193 80q117 0 193 -77q75 77 192 77q118 0 193 -80q79 -85 80 -192l1 -196l-386 -183l-1 -201q3 -44 33 -76q33 -35 78 -35 q46 0 80 35q31 31 34 85l1 21l160 70v-96q0 -107 -80 -192q-75 -80 -193 -80q-93 0 -160 49l-113 -49v262v14v1v70v140l-146 -62q-104 -49 -104 -131q0 -33 26 -68q42 -56 127 -63l50 -162q-12 -1 -24 -1q-150 0 -266 110q-78 80 -78 184zM670 646l225 110l-1 87 q-1 52 -34 85q-34 35 -80 35q-45 0 -78 -35q-28 -30 -32 -71v-13v-1v-197z" />
<glyph unicode="&#xe7;" d="M198 376v368q0 156 110 266t266 110q157 0 267 -110q111 -111 111 -266v-10l-160 -72v79q-2 93 -64 154q-64 63 -151 63q-90 0 -155 -63q-64 -63 -64 -151v-3v-362q0 -92 67 -154q68 -63 155 -63q84 0 148 63q62 61 64 154v14l160 71v-88q0 -140 -120 -268 q-75 -80 -180 -101l74 -164l4 -176l-318 -140l-4 175l176 73l-109 237q-94 25 -167 98q-110 110 -110 266z" />
<glyph unicode="&#xe8;" d="M198 376v368q0 156 110 266t266 110q150 0 267 -110q111 -104 111 -266v-94l-594 -264q0 -95 63 -159.5t159 -64.5q84 0 148 63q62 61 64 154v14l160 71v-88q0 -140 -120 -268q-102 -108 -258 -108t-266 110t-110 266zM288 1448l64 163l286 -278l-64 -163zM358 561 l433 193q-5 84 -63 141q-64 63 -160 63q-84 0 -147 -63t-63 -151v-3v-180z" />
<glyph unicode="&#xe9;" d="M198 376v368q0 156 110 266t266 110q150 0 267 -110q111 -104 111 -266v-94l-594 -264q0 -95 63 -159.5t159 -64.5q84 0 148 63q62 61 64 154v14l160 71v-88q0 -140 -120 -268q-102 -108 -258 -108t-266 110t-110 266zM358 561l433 193q-5 84 -63 141q-64 63 -160 63 q-84 0 -147 -63t-63 -151v-3v-180zM511 1333l286 278l64 -163l-286 -278z" />
<glyph unicode="&#xea;" d="M198 376v368q0 156 110 266t266 110q150 0 267 -110q111 -104 111 -266v-94l-594 -264q0 -95 63 -159.5t159 -64.5q84 0 148 63q62 61 64 154v14l160 71v-88q0 -140 -120 -268q-102 -108 -258 -108t-266 110t-110 266zM312 1323l262 240l257 -236l-72 -146l-186 197 l-194 -197zM358 561l433 193q-5 84 -63 141q-64 63 -160 63q-84 0 -147 -63t-63 -151v-3v-180z" />
<glyph unicode="&#xeb;" d="M198 376v368q0 156 110 266t266 110q150 0 267 -110q111 -104 111 -266v-94l-594 -264q0 -95 63 -159.5t159 -64.5q84 0 148 63q62 61 64 154v14l160 71v-88q0 -140 -120 -268q-102 -108 -258 -108t-266 110t-110 266zM219 1379q0 55 38 93.5t92 38.5t92 -38.5t38 -93.5 t-38 -93.5t-92 -38.5t-92 38.5t-38 93.5zM358 561l433 193q-5 84 -63 141q-64 63 -160 63q-84 0 -147 -63t-63 -151v-3v-180zM671 1379q0 55 38 93.5t92 38.5t92 -38.5t38 -93.5t-38 -93.5t-92 -38.5t-92 38.5t-38 93.5z" />
<glyph unicode="&#xec;" d="M0 1448l64 163l286 -278l-64 -163zM198 376v674l160 70v-741q2 -93 64 -154q64 -63 160 -63q84 0 147 68t63 156l160 70v-80q0 -156 -110 -266t-266 -110t-267 110t-111 266z" />
<glyph unicode="&#xed;" d="M198 376v674l160 70v-741q2 -93 64 -154q64 -63 160 -63q84 0 147 68t63 156l160 70v-80q0 -156 -110 -266t-266 -110t-267 110t-111 266zM209 1333l286 278l64 -163l-286 -278z" />
<glyph unicode="&#xee;" d="M17 1321l262 240l257 -236l-72 -146l-186 197l-194 -197zM198 376v674l160 70v-741q2 -93 64 -154q64 -63 160 -63q84 0 147 68t63 156l160 70v-80q0 -156 -110 -266t-266 -110t-267 110t-111 266z" />
<glyph unicode="&#xef;" d="M-56 1379q0 55 38 93.5t92 38.5t92 -38.5t38 -93.5t-38 -93.5t-92 -38.5t-92 38.5t-38 93.5zM198 376v674l160 70v-741q2 -93 64 -154q64 -63 160 -63q84 0 147 68t63 156l160 70v-80q0 -156 -110 -266t-266 -110t-267 110t-111 266zM396 1379q0 55 38 93.5t92 38.5 t92 -38.5t38 -93.5t-38 -93.5t-92 -38.5t-92 38.5t-38 93.5z" />
<glyph unicode="&#xf0;" d="M198 376v368q0 156 110 266t266 110q123 0 218 -68v89q-1 37 -11 69l-185 -68l11 175l60 22q-30 14 -63 18l48 156q107 -22 189 -103l5 -5l211 78l-11 -175l-113 -42q19 -57 19 -122v-768q0 -156 -111 -266t-267 -110t-266 110t-110 266zM358 373q1 -86 63 -148 q63 -63 147 -63q96 0 160 63q62 61 64 154v362q-2 93 -64 154q-64 63 -148 63q-87 0 -155 -63q-67 -62 -67 -154v-362v-6z" />
<glyph unicode="&#xf1;" d="M198 0v744q0 156 110 266t266 110t267 -110t111 -266v-674l-160 -70v741q-2 93 -64 154q-64 63 -151 63q-90 0 -155 -64q-64 -62 -64 -150v-3v-671zM234 1315l262 240l198 -182l172 182l72 -146l-257 -236l-200 183l-180 -183z" />
<glyph unicode="&#xf2;" d="M198 376v368q0 156 110 266t266 110t267 -110t111 -266v-368q0 -156 -111 -266t-267 -110t-266 110t-110 266zM288 1448l64 163l286 -278l-64 -163zM358 379q0 -92 67 -154q68 -63 155 -63q84 0 148 63q62 61 64 154v362q-2 93 -64 154q-64 63 -160 63q-84 0 -147 -63 q-62 -62 -63 -148v-6v-362z" />
<glyph unicode="&#xf3;" d="M198 376v368q0 156 110 266t266 110t267 -110t111 -266v-368q0 -156 -111 -266t-267 -110t-266 110t-110 266zM358 373q0 -86 67 -148q68 -63 155 -63q84 0 148 63q62 61 64 154v362q-2 93 -64 154q-64 63 -151 63q-90 0 -155 -63q-64 -63 -64 -151v-3v-362v-3v-3z M511 1333l286 278l64 -163l-286 -278z" />
<glyph unicode="&#xf4;" d="M198 376v368q0 156 110 266t266 110t267 -110t111 -266v-368q0 -156 -111 -266t-267 -110t-266 110t-110 266zM312 1323l262 240l257 -236l-72 -146l-186 197l-194 -197zM358 379q0 -92 67 -154q68 -63 155 -63q84 0 148 63q62 61 64 154v362q-2 93 -64 154 q-64 63 -160 63q-84 0 -147 -63q-62 -62 -63 -148v-6v-362z" />
<glyph unicode="&#xf5;" d="M198 376v368q0 156 110 266t266 110t267 -110t111 -266v-368q0 -156 -111 -266t-267 -110t-266 110t-110 266zM234 1315l262 240l198 -182l172 182l72 -146l-257 -236l-200 183l-180 -183zM358 379q0 -92 67 -154q68 -63 155 -63q84 0 148 63q62 61 64 154v362 q-2 93 -64 154q-64 63 -160 63q-84 0 -147 -63q-62 -62 -63 -148v-6v-362z" />
<glyph unicode="&#xf6;" d="M198 376v368q0 156 110 266t266 110t267 -110t111 -266v-368q0 -156 -111 -266t-267 -110t-266 110t-110 266zM219 1379q0 55 38 93.5t92 38.5t92 -38.5t38 -93.5t-38 -93.5t-92 -38.5t-92 38.5t-38 93.5zM358 379q0 -92 67 -154q68 -63 155 -63q84 0 148 63 q62 61 64 154v362q-2 93 -64 154q-64 63 -160 63q-84 0 -147 -63q-62 -62 -63 -148v-6v-362zM671 1379q0 55 38 93.5t92 38.5t92 -38.5t38 -93.5t-38 -93.5t-92 -38.5t-92 38.5t-38 93.5z" />
<glyph unicode="&#xf7;" d="M139 675l70 160h802l-70 -160h-802zM445 360q0 55 38 93.5t92 38.5t92 -38.5t38 -93.5t-38 -93.5t-92 -38.5t-92 38.5t-38 93.5zM445 1137q0 55 38 93.5t92 38.5t92 -38.5t38 -93.5t-38 -93.5t-92 -38.5t-92 38.5t-38 93.5z" />
<glyph unicode="&#xf8;" d="M59 -31l174 246q-35 73 -35 161v368q0 156 110 266t266 110q137 0 240 -85l131 185l145 -68l-174 -246q36 -73 36 -162v-368q0 -156 -111 -266t-267 -110q-138 0 -239 86l-131 -185zM358 391l362 511q-62 56 -152 56q-84 0 -147 -63q-62 -62 -63 -148v-6v-350zM430 220 q66 -58 150 -58t148 63q62 61 64 154v352z" />
<glyph unicode="&#xf9;" d="M198 376v674l160 70v-741q2 -93 64 -154q64 -63 160 -63q84 0 147 63t63 151v3v671l160 70v-744q0 -156 -110 -266t-266 -110t-267 110t-111 266zM288 1448l64 163l286 -278l-64 -163z" />
<glyph unicode="&#xfa;" d="M198 376v674l160 70v-741q2 -93 64 -154q64 -63 160 -63q84 0 147 63t63 151v3v671l160 70v-744q0 -156 -110 -266t-266 -110t-267 110t-111 266zM511 1333l286 278l64 -163l-286 -278z" />
<glyph unicode="&#xfb;" d="M198 376v674l160 70v-741q2 -93 64 -154q64 -63 160 -63q84 0 147 63t63 151v3v671l160 70v-744q0 -156 -110 -266t-266 -110t-267 110t-111 266zM312 1323l262 240l257 -236l-72 -146l-186 197l-194 -197z" />
<glyph unicode="&#xfc;" d="M198 376v674l160 70v-741q2 -93 64 -154q64 -63 160 -63q84 0 147 63t63 151v3v671l160 70v-744q0 -156 -110 -266t-266 -110t-267 110t-111 266zM219 1379q0 55 38 93.5t92 38.5t92 -38.5t38 -93.5t-38 -93.5t-92 -38.5t-92 38.5t-38 93.5zM671 1379q0 55 38 93.5 t92 38.5t92 -38.5t38 -93.5t-38 -93.5t-92 -38.5t-92 38.5t-38 93.5z" />
<glyph unicode="&#xfd;" d="M198 376v674l160 70v-741q2 -93 64 -154q64 -63 160 -63q84 0 147 63q62 62 63 148v6v671l160 70v-1144q0 -156 -111 -266t-267 -110t-266 110q-70 70 -95 158l159 34q16 -43 53 -77q69 -63 155 -63q84 0 148 63q62 61 64 154v88q-94 -67 -216 -67q-156 0 -267 110 t-111 266zM511 1333l286 278l64 -163l-286 -278z" />
<glyph unicode="&#xfe;" d="M198 -391v1832l160 70v-459q95 68 218 68q156 0 266 -110t110 -266v-368q0 -156 -110 -266t-266 -110q-123 0 -218 68v-389zM358 379q0 -92 67 -154q68 -63 155 -63q84 0 148 63q62 61 64 154v362q-2 93 -64 154q-64 63 -160 63q-84 0 -147 -63q-62 -62 -63 -148v-368z " />
<glyph unicode="&#xff;" d="M198 376v674l160 70v-741q2 -93 64 -154q64 -63 160 -63q84 0 147 63q62 62 63 148v6v671l160 70v-1144q0 -156 -111 -266t-267 -110t-266 110q-70 70 -95 158l159 34q16 -43 53 -77q69 -63 155 -63q84 0 148 63q62 61 64 154v88q-94 -67 -216 -67q-156 0 -267 110 t-111 266zM219 1379q0 55 38 93.5t92 38.5t92 -38.5t38 -93.5t-38 -93.5t-92 -38.5t-92 38.5t-38 93.5zM671 1379q0 55 38 93.5t92 38.5t92 -38.5t38 -93.5t-38 -93.5t-92 -38.5t-92 38.5t-38 93.5z" />
<glyph unicode="&#x152;" d="M110 276v1v962q0 112 80 192t193 80q104 0 175 -61l97 42l343 -1l-70 -160h-273v-496h343l-70 -160h-273v-495h473l-70 -160h-563v2q-50 -22 -112 -22q-117 0 -193 78q-80 82 -80 198zM270 277q0 -50 33 -85t78 -35t80 35q31 31 34 85v959q0 50 -32.5 84t-77.5 34 q-46 0 -80 -35t-34 -85z" />
<glyph unicode="&#x153;" d="M109 276v1v566v1q0 116 80 198q76 78 193 78q119 0 192 -78q76 78 193 78q118 0 193 -80q79 -85 80 -192l1 -196l-387 -184v-191q0 -50 33 -85t78 -35q46 0 80 35q31 31 34 85l1 21l160 70v-96q0 -107 -80 -192q-75 -80 -193 -80q-117 0 -193 78l-1 2q-76 -80 -191 -80 q-117 0 -193 78q-80 82 -80 198zM269 277q0 -50 33 -85t78 -35t80 35q31 31 34 84v1v70v496v1q-3 53 -34 84q-35 35 -80 35t-78 -35t-33 -85v-566zM654 645l226 111l-1 87q-1 52 -34 85q-34 35 -80 35q-45 0 -78 -35t-33 -85v-198z" />
<glyph unicode="&#x178;" d="M124 897v544l160 70v-617q1 -120 86 -204q86 -85 205 -85q120 0 206 85q85 84 85 201v3v547l160 70v-614q0 -184 -132 -315q-103 -101 -239 -124v-388l-160 -70v458q-136 23 -239 124q-132 131 -132 315zM222 1743q0 55 38 93.5t92 38.5t92 -38.5t38 -93.5t-38 -93.5 t-92 -38.5t-92 38.5t-38 93.5zM674 1743q0 55 38 93.5t92 38.5t92 -38.5t38 -93.5t-38 -93.5t-92 -38.5t-92 38.5t-38 93.5z" />
<glyph unicode="&#x2c6;" d="M316 1323l262 240l256 -236l-72 -146l-186 197l-194 -197z" />
<glyph unicode="&#x2dc;" d="M223 1315l262 240l198 -182l172 182l72 -146l-257 -236l-200 183l-180 -183z" />
<glyph unicode="&#x2000;" horiz-adv-x="1017" />
<glyph unicode="&#x2001;" horiz-adv-x="2035" />
<glyph unicode="&#x2002;" horiz-adv-x="1017" />
<glyph unicode="&#x2003;" horiz-adv-x="2035" />
<glyph unicode="&#x2004;" horiz-adv-x="678" />
<glyph unicode="&#x2005;" horiz-adv-x="508" />
<glyph unicode="&#x2006;" horiz-adv-x="339" />
<glyph unicode="&#x2007;" horiz-adv-x="339" />
<glyph unicode="&#x2008;" horiz-adv-x="254" />
<glyph unicode="&#x2009;" horiz-adv-x="407" />
<glyph unicode="&#x200a;" horiz-adv-x="113" />
<glyph unicode="&#x2010;" d="M139 675l70 160h802l-70 -160h-802z" />
<glyph unicode="&#x2011;" d="M139 675l70 160h802l-70 -160h-802z" />
<glyph unicode="&#x2012;" d="M139 675l70 160h802l-70 -160h-802z" />
<glyph unicode="&#x2013;" d="M139 675l70 160h802l-70 -160h-802z" />
<glyph unicode="&#x2014;" d="M2 675l70 160h1076l-70 -160h-1076z" />
<glyph unicode="&#x2018;" d="M410 1182q0 80 39 157q73 143 182 166q29 6 57 6q16 0 34 -2q-21 -58 -39 -109q-42 -5 -71 -50q-22 -34 -22 -70v-21q33 -8 59 -34q38 -38 38 -94q0 -55 -38 -93.5t-92 -38.5q-48 0 -92 36q-43 35 -52 102q-3 23 -3 45z" />
<glyph unicode="&#x2019;" d="M410 1001q21 58 39 109q42 5 71 50q22 34 22 70v21q-33 8 -59 34q-38 38 -38 94q0 55 38 93.5t92 38.5q48 0 92 -36q43 -35 52 -102q3 -23 3 -45q0 -80 -39 -157q-73 -143 -182 -166q-29 -6 -57 -6q-16 0 -34 2z" />
<glyph unicode="&#x201a;" d="M391 -246q21 58 39 109q42 5 71 50q22 34 22 70v21q-33 8 -59 34q-38 38 -38 94q0 55 38 93.5t92 38.5q48 0 92 -36q43 -35 52 -102q3 -23 3 -45q0 -80 -39 -157q-73 -143 -182 -166q-29 -6 -57 -6q-16 0 -34 2z" />
<glyph unicode="&#x201c;" d="M229 1182q0 80 39 157q73 143 182 166q29 6 57 6q16 0 34 -2q-21 -58 -39 -109q-42 -5 -71 -50q-22 -34 -22 -70v-21q33 -8 59 -34q38 -38 38 -94q0 -55 -38 -93.5t-92 -38.5q-48 0 -92 36q-43 35 -52 102q-3 23 -3 45zM609 1182q0 80 39 157q73 143 182 166q29 6 57 6 q16 0 34 -2q-21 -58 -39 -109q-42 -5 -71 -50q-22 -34 -22 -70v-21q33 -8 59 -34q38 -38 38 -94q0 -55 -38 -93.5t-92 -38.5q-48 0 -92 36q-43 35 -52 102q-3 23 -3 45z" />
<glyph unicode="&#x201d;" d="M229 1001q21 58 39 109q42 5 71 50q22 34 22 70v21q-33 8 -59 34q-38 38 -38 94q0 55 38 93.5t92 38.5q48 0 92 -36q43 -35 52 -102q3 -23 3 -45q0 -80 -39 -157q-73 -143 -182 -166q-29 -6 -57 -6q-16 0 -34 2zM609 1001q21 58 39 109q42 5 71 50q22 34 22 70v21 q-33 8 -59 34q-38 38 -38 94q0 55 38 93.5t92 38.5q48 0 92 -36q43 -35 52 -102q3 -23 3 -45q0 -80 -39 -157q-73 -143 -182 -166q-29 -6 -57 -6q-16 0 -34 2z" />
<glyph unicode="&#x201e;" d="M229 -246q21 58 39 109q42 5 71 50q22 34 22 70v21q-33 8 -59 34q-38 38 -38 94q0 55 38 93.5t92 38.5q48 0 92 -36q43 -35 52 -102q3 -23 3 -45q0 -80 -39 -157q-73 -143 -182 -166q-29 -6 -57 -6q-16 0 -34 2zM609 -246q21 58 39 109q42 5 71 50q22 34 22 70v21 q-33 8 -59 34q-38 38 -38 94q0 55 38 93.5t92 38.5q48 0 92 -36q43 -35 52 -102q3 -23 3 -45q0 -80 -39 -157q-73 -143 -182 -166q-29 -6 -57 -6q-16 0 -34 2z" />
<glyph unicode="&#x2022;" d="M285 746q0 118 85 202t205 84t205 -84t85 -202t-85 -202t-205 -84t-205 84t-85 202z" />
<glyph unicode="&#x2026;" d="M59 132q0 55 38 93.5t92 38.5t92 -38.5t38 -93.5t-38 -93.5t-92 -38.5t-92 38.5t-38 93.5zM449 132q0 55 38 93.5t92 38.5t92 -38.5t38 -93.5t-38 -93.5t-92 -38.5t-92 38.5t-38 93.5zM831 132q0 55 38 93.5t92 38.5t92 -38.5t38 -93.5t-38 -93.5t-92 -38.5t-92 38.5 t-38 93.5z" />
<glyph unicode="&#x202f;" horiz-adv-x="407" />
<glyph unicode="&#x2039;" d="M303 753l402 568l142 -70l-353 -488l353 -492l-145 -70z" />
<glyph unicode="&#x203a;" d="M303 271l353 492l-353 488l142 70l402 -568l-399 -552z" />
<glyph unicode="&#x205f;" horiz-adv-x="508" />
<glyph unicode="&#x20ac;" d="M70 515l70 160h38v160h-108l70 160h38v71q0 184 132 314.5t319 130.5q189 0 319 -131q132 -132 132 -314v-9l-160 -73v85q0 119 -86 204t-205 85q-121 0 -206 -84.5t-85 -204.5v-74h337l-70 -160h-267v-160h337l-70 -160h-267v-73q0 -119 85 -204t206 -85q118 0 205 85 q86 84 86 204v12l160 74v-83q0 -184 -132 -314.5t-319 -130.5q-188 0 -319 130q-132 131 -132 315v70h-108z" />
<glyph unicode="&#x2122;" d="M10 1391l50 122l427 -1l-49 -121h-124v-545l-132 -57v602h-172zM484 788v680l135 44l173 -482l173 440l138 45v-680l-143 -47v309l-100 -264l-128 -42l-104 275v-231z" />
<glyph unicode="&#x25fc;" horiz-adv-x="1120" d="M0 0v1120h1120v-1120h-1120z" />
<glyph unicode="&#xfb01;" d="M46 0v1234v1q0 116 80 198q76 78 193 78q118 0 193 -80q80 -85 80 -192v-28l-161 -70v93q0 44 -34 85q-28 35 -80 35q-45 0 -78 -35q-33 -34 -33 -85v-250h188l-70 -160h-118v-754zM604 276v1v772l160 71v-843q0 -50 33 -85t78 -35q52 0 80 35q34 42 34 85v23l161 70v-98 q0 -105 -80 -192q-75 -80 -193 -80q-117 0 -193 78q-80 82 -80 198z" />
<glyph unicode="&#xfb02;" d="M46 0v1234v1q0 116 80 198q76 78 193 78q118 0 193 -80q80 -85 80 -192v-28l-161 -70v93q0 44 -34 85q-28 35 -80 35q-45 0 -78 -35q-33 -34 -33 -85v-250h188l-70 -160h-118v-754zM604 276v1v1163l160 71v-1234q0 -50 33 -85t78 -35q52 0 80 35q34 42 34 85v23l161 70 v-98q0 -105 -80 -192q-75 -80 -193 -80q-117 0 -193 78q-80 82 -80 198z" />
<glyph unicode="&#xfb03;" d="M-84 0v1234v1q0 115 80 198q75 78 192 78q118 0 193 -79l1 1q76 78 192 78q119 0 194 -80q80 -85 80 -192v-28l-162 -70v93q0 42 -34 85q-28 35 -80 35q-45 0 -78 -35q-31 -33 -32 -80v-1q-1 -2 0 -4v-23v-227h188l-70 -160h-118v-754l-160 -70v1141h-2v93q0 42 -34 85 q-28 35 -80 35q-45 0 -78 -35q-32 -34 -32 -85v-250h188l-70 -160h-118v-754zM688 276v1v772l160 71v-843q0 -50 33 -85t79 -35q52 0 80 35q34 43 34 85v23l160 70v-98q0 -105 -80 -192q-74 -80 -192 -80q-119 0 -194 78q-80 83 -80 198z" />
<glyph unicode="&#xfb04;" d="M-83 0v1234v1q0 116 80 198q76 78 193 78t192 -79l1 1q76 78 193 78q93 0 159 -50l112 50v-1234q0 -50 33 -85t78 -35q52 0 80 35q34 42 34 85v23l161 70v-98q0 -105 -80 -192q-75 -80 -193 -80q-117 0 -193 78q-80 82 -80 198v1v972q-5 36 -33 70q-29 35 -80 35 q-44 0 -78 -35q-31 -32 -33 -80v-1v-4v-23v-227h188l-70 -160h-118v-754l-160 -70v1141h-1v93q0 44 -34 85q-28 35 -80 35q-45 0 -78 -35q-33 -34 -33 -85v-250h188l-70 -160h-118v-754z" />
</font>
</defs>
</svg>
